<?xml version="1.0" encoding="UTF-8"?>
<svg width="19px" height="21px" viewBox="0 0 19 21" version="1.1" xmlns="http://www.w3.org/2000/svg" xmlns:xlink="http://www.w3.org/1999/xlink">
    <!-- Generator: Sketch 53.2 (72643) - https://sketchapp.com -->
    <title>icon/book</title>
    <desc>Created with Sketch.</desc>
    <defs>
        <path d="M18.201875,14.4014063 L18.201875,0.960093711 C18.201875,0.428041756 17.7738332,-4.26708766e-08 17.2417813,-4.26708766e-08 L4.12049998,-4.26708766e-08 C2.00029294,-4.26708766e-08 0.280124963,1.72016793 0.280124963,3.84037497 L0.280124963,16.641625 C0.280124963,18.7618321 2.00029294,20.482 4.12049998,20.482 L17.2417813,20.482 C17.7738332,20.482 18.201875,20.0539582 18.201875,19.5219063 L18.201875,18.8818438 C18.201875,18.5818145 18.0618614,18.3097879 17.8458403,18.1337707 C17.6778239,17.5177106 17.6778239,15.7615391 17.8458403,15.1454789 C18.0618614,14.9734621 18.201875,14.7014356 18.201875,14.4014063 Z M5.40062498,5.36052342 C5.40062498,5.22851053 5.50863553,5.12049998 5.64064842,5.12049998 L14.1214766,5.12049998 C14.2534895,5.12049998 14.3615,5.22851053 14.3615,5.36052342 L14.3615,6.16060155 C14.3615,6.29261444 14.2534895,6.40062498 14.1214766,6.40062498 L5.64064842,6.40062498 C5.50863553,6.40062498 5.40062498,6.29261444 5.40062498,6.16060155 L5.40062498,5.36052342 Z M5.40062498,7.92077343 C5.40062498,7.78876054 5.50863553,7.68074999 5.64064842,7.68074999 L14.1214766,7.68074999 C14.2534895,7.68074999 14.3615,7.78876054 14.3615,7.92077343 L14.3615,8.72085156 C14.3615,8.85286445 14.2534895,8.96087499 14.1214766,8.96087499 L5.64064842,8.96087499 C5.50863553,8.96087499 5.40062498,8.85286445 5.40062498,8.72085156 L5.40062498,7.92077343 Z M15.5376149,17.92175 L4.12049998,17.92175 C3.41243084,17.92175 2.84037497,17.3496942 2.84037497,16.641625 C2.84037497,15.9375563 3.41643123,15.3615 4.12049998,15.3615 L15.5376149,15.3615 C15.4616074,16.0455668 15.4616074,17.2376832 15.5376149,17.92175 Z" id="path-1"></path>
    </defs>
    <g id="layout" stroke="none" stroke-width="1" fill="none" fill-rule="evenodd">
        <g id="materials-aurum" transform="translate(-553.000000, -526.000000)">
            <g id="icon/book" transform="translate(553.000000, 526.000000)">
                <mask id="mask-2" fill="white">
                    <use xlink:href="#path-1"></use>
                </mask>
                <use id="book" fill="#868797" fill-rule="nonzero" xlink:href="#path-1"></use>
            </g>
        </g>
    </g>
</svg>