<?xml version="1.0" encoding="UTF-8"?>
<svg width="20px" height="20px" viewBox="0 0 20 20" version="1.1" xmlns="http://www.w3.org/2000/svg" xmlns:xlink="http://www.w3.org/1999/xlink">
    <!-- Generator: Sketch 53.2 (72643) - https://sketchapp.com -->
    <title>icon-chart</title>
    <desc>Created with Sketch.</desc>
    <g id="layout" stroke="none" stroke-width="1" fill="none" fill-rule="evenodd">
        <g id="materials-aurum" transform="translate(-720.000000, -526.000000)" fill="#868797" fill-rule="nonzero">
            <path d="M725.5,540 C726.328427,540 727,539.328427 727,538.5 C727.004882,538.450119 727.004882,538.399881 727,538.35 L729.79,535.56 L730.02,535.56 L730.25,535.56 L731.86,537.17 C731.86,537.17 731.86,537.22 731.86,537.25 C731.86,538.078427 732.531573,538.75 733.36,538.75 C734.188427,538.75 734.86,538.078427 734.86,537.25 L734.86,537.17 L738.5,533.5 L738.5,533.5 C739.328427,533.5 740,532.828427 740,532 C740,531.171573 739.328427,530.5 738.5,530.5 C737.671573,530.5 737,531.171573 737,532 C736.995118,532.049881 736.995118,532.100119 737,532.15 L733.39,535.76 L733.23,535.76 L731.5,534 C731.5,533.171573 730.828427,532.5 730,532.5 C729.171573,532.5 728.5,533.171573 728.5,534 L725.5,537 L725.5,537 C724.671573,537 724,537.671573 724,538.5 C724,539.328427 724.671573,540 725.5,540 Z M739,544 L722,544 L722,527 C722,526.447715 721.552285,526 721,526 C720.447715,526 720,526.447715 720,527 L720,545 C720,545.552285 720.447715,546 721,546 L739,546 C739.552285,546 740,545.552285 740,545 C740,544.447715 739.552285,544 739,544 Z" id="icon-chart"></path>
        </g>
    </g>
</svg>