<?xml version="1.0" encoding="UTF-8"?>
<svg width="21px" height="21px" viewBox="0 0 21 21" version="1.1" xmlns="http://www.w3.org/2000/svg" xmlns:xlink="http://www.w3.org/1999/xlink">
    <!-- Generator: Sketch 53.2 (72643) - https://sketchapp.com -->
    <title>icon-tool</title>
    <desc>Created with Sketch.</desc>
    <defs>
        <path d="M9.03106432,20.014924 L8.20363157,17.9916784 C8.18548527,17.9470268 8.14855298,17.9126632 8.10271125,17.8977773 C8.05686952,17.8828913 8.00679442,17.8890015 7.96587718,17.9144737 L6.1072339,19.0649299 C4.90102337,19.8115965 3.39340348,18.7161989 3.73075436,17.3383041 L4.25059647,15.2151755 C4.26216487,15.1683804 4.25248838,15.1188651 4.22415409,15.0798679 C4.1958198,15.0408708 4.15171715,15.0163686 4.1036374,15.0129123 L1.92377189,14.8511755 C0.50928066,14.7462983 -0.0670117399,12.9740702 1.01606429,12.0574386 L2.68456137,10.6453216 C2.72141767,10.6142719 2.74268946,10.5685371 2.74268946,10.520345 C2.74268946,10.472153 2.72141767,10.4264182 2.68456137,10.3953684 L1.01602335,8.98321052 C-0.0667251902,8.06690642 0.508830368,6.29447367 1.92373096,6.1895146 L4.10359646,6.02777776 C4.15167622,6.02432144 4.19577887,5.99981927 4.22411315,5.96082214 C4.25244744,5.921825 4.26212394,5.87230969 4.25055553,5.8255146 L3.73075436,3.702345 C3.39348535,2.324614 4.90073682,1.22901166 6.1072339,1.97571926 L7.96583625,3.12617541 C8.00676223,3.15163078 8.05683627,3.15772687 8.10267427,3.14283425 C8.14851226,3.12794164 8.18544126,3.09357856 8.20359063,3.04892979 L9.03102339,1.02568417 C9.56793567,-0.287163788 11.4314094,-0.287573144 11.9684854,1.02568417 L12.7958772,3.04888886 C12.814036,3.0935399 12.8509726,3.12790267 12.8968167,3.14279471 C12.9426608,3.15768675 12.9927402,3.1515903 13.0336725,3.12613447 L14.8922749,1.97567833 C16.0984035,1.2291754 17.6061872,2.32416371 17.2687544,3.70230407 L16.7489123,5.82543273 C16.7373741,5.87222515 16.7470627,5.92172453 16.7753912,5.96071372 C16.8037197,5.99970291 16.8478035,6.02421172 16.8958714,6.02769589 L19.0757369,6.18943273 C20.4901872,6.29435086 21.0665614,8.06649707 19.9834854,8.98312865 L18.3149474,10.3952865 C18.2780896,10.4263441 18.2568176,10.4720854 18.2568176,10.5202836 C18.2568176,10.5684819 18.2780896,10.6142232 18.3149474,10.6452807 L19.9834854,12.0573977 C21.068731,12.9760351 20.4878948,14.7464211 19.0757369,14.8511345 L16.8958714,15.0128714 C16.8477898,15.0163368 16.8036898,15.0408494 16.775363,15.0798551 C16.7470362,15.1188607 16.7373715,15.1683811 16.7489532,15.2151755 L17.2687544,17.3382632 C17.6061053,18.7160761 16.0986901,19.8116375 14.8922749,19.0649299 L13.0336725,17.9144737 C12.9927402,17.8890179 12.9426608,17.8829214 12.8968167,17.8978135 C12.8509726,17.9127055 12.814036,17.9470683 12.7958772,17.9917193 L11.9684854,20.014924 C11.4298129,21.3321521 9.56658479,21.324579 9.03106432,20.014924 L9.03106432,20.014924 Z M9.71935672,17.3717895 L10.4997544,19.2800468 L11.2801521,17.3718304 C11.702117,16.3402515 12.9494269,15.9363801 13.895614,16.5220468 L15.6485614,17.6071287 L15.1583158,15.6045965 C14.8932573,14.5220936 15.6650994,13.4620643 16.7747427,13.3797836 L18.8307778,13.2272573 L17.2570468,11.8953743 C16.4063217,11.1752749 16.4077544,9.86410526 17.2570877,9.14531578 L18.8307369,7.81343274 L16.7747427,7.66086549 C15.6632983,7.5783801 14.8937486,6.51679531 15.1582749,5.43605261 L15.6486024,3.43352044 L13.895614,4.51860231 C12.9479123,5.1050877 11.7013392,4.69871927 11.2801521,3.66877775 L10.4997544,1.76056137 L9.71935672,3.66885962 C9.29751461,4.7003567 8.05008186,5.10430992 7.10393566,4.51868419 L5.35094735,3.43356137 L5.8412339,5.43605261 C6.10625144,6.51863741 5.33440934,7.57854385 4.22476606,7.66090642 L2.16881283,7.81343274 L3.7425029,9.14535672 C4.59322805,9.86533333 4.5917953,11.1765439 3.7425029,11.8953333 L2.1687719,13.2272573 L4.22480699,13.3797836 C5.33625144,13.4622281 6.10580115,14.5238129 5.8412339,15.6045965 L5.35094735,17.6071287 L7.10393566,16.5220468 C8.05315204,15.9344152 9.2989883,16.3438948 9.71935672,17.3717895 L9.71935672,17.3717895 Z M10.5,15.7602339 C7.61076022,15.7602339 5.2602339,13.4096667 5.2602339,10.5204678 C5.2602339,7.63122806 7.61076022,5.28070173 10.5,5.28070173 C13.3891988,5.28070173 15.7397661,7.63122806 15.7397661,10.5204678 C15.7397661,13.4096667 13.3891988,15.7602339 10.5,15.7602339 Z M10.5,7.24561402 C8.69424561,7.24561402 7.22514619,8.71471344 7.22514619,10.5204678 C7.22514619,12.3262222 8.69424561,13.7953217 10.5,13.7953217 C12.3057544,13.7953217 13.7748538,12.3262222 13.7748538,10.5204678 C13.7748538,8.71471344 12.3057544,7.24561402 10.5,7.24561402 Z" id="path-1"></path>
    </defs>
    <g id="layout" stroke="none" stroke-width="1" fill="none" fill-rule="evenodd">
        <g id="materials-aurum" transform="translate(-1099.000000, -525.000000)">
            <g id="icon-tool" transform="translate(1099.000000, 525.000000)">
                <mask id="mask-2" fill="white">
                    <use xlink:href="#path-1"></use>
                </mask>
                <use id="sun" fill="#868797" fill-rule="nonzero" xlink:href="#path-1"></use>
            </g>
        </g>
    </g>
</svg>