<?xml version="1.0" encoding="UTF-8"?>
<svg width="20px" height="20px" viewBox="0 0 20 20" version="1.1" xmlns="http://www.w3.org/2000/svg" xmlns:xlink="http://www.w3.org/1999/xlink">
    <!-- Generator: Sketch 53.2 (72643) - https://sketchapp.com -->
    <title>icon-webinar</title>
    <desc>Created with Sketch.</desc>
    <g id="layout" stroke="none" stroke-width="1" fill="none" fill-rule="evenodd">
        <g id="materials-aurum" transform="translate(-924.000000, -526.000000)" fill="#868797" fill-rule="nonzero">
            <path d="M938,534.27 L933,531.38 C932.381515,531.022917 931.619556,531.022721 931.000887,531.379487 C930.382219,531.736252 930.000732,532.395835 930,533.11 L930,538.89 C930.000732,539.603798 930.381832,540.263101 931,540.62 C931.618802,540.977266 932.381198,540.977266 933,540.62 L938,537.73 C938.616804,537.372202 938.996456,536.713069 938.996456,536 C938.996456,535.286931 938.616804,534.627798 938,534.27 Z M937,536 L932,538.89 L932,533.11 L937,536 Z M934,526 C928.477153,526 924,530.477153 924,536 C924,541.522847 928.477153,546 934,546 C939.522847,546 944,541.522847 944,536 C944,533.347835 942.946432,530.804296 941.071068,528.928932 C939.195704,527.053568 936.652165,526 934,526 Z M934,544 C929.581722,544 926,540.418278 926,536 C926,531.581722 929.581722,528 934,528 C938.418278,528 942,531.581722 942,536 C942,538.121732 941.157145,540.156563 939.656854,541.656854 C938.156563,543.157145 936.121732,544 934,544 Z" id="icon-webinar"></path>
        </g>
    </g>
</svg>