<?xml version="1.0" encoding="UTF-8"?>
<svg width="20px" height="20px" viewBox="0 0 20 20" version="1.1" xmlns="http://www.w3.org/2000/svg" xmlns:xlink="http://www.w3.org/1999/xlink">
    <!-- Generator: Sketch 58 (84663) - https://sketch.com -->
    <title>icon-all</title>
    <desc>Created with Sketch.</desc>
    <g id="layout" stroke="none" stroke-width="1" fill="none" fill-rule="evenodd">
        <g id="materials-aurum" transform="translate(-385.000000, -525.000000)" fill="#868797" fill-rule="nonzero">
            <path d="M385.500533,531.919749 L394.500028,537.020802 C394.809412,537.196035 395.190588,537.196035 395.499972,537.020802 L404.499467,531.919749 C404.806994,531.745575 404.997295,531.424467 404.999446,531.076113 C405.000862,530.724254 404.810083,530.398597 404.499467,530.222668 L395.499972,525.131425 C395.190588,524.956192 394.809412,524.956192 394.500028,525.131425 L385.500533,530.222668 C385.189917,530.398597 384.999138,530.724254 385.000554,531.076113 C385.002705,531.424467 385.193006,531.745575 385.500533,531.919749 Z M395,527.152227 L401.999607,531.076113 L395,535 L388.000393,531.076113 L395,527.152227 Z M403.499523,534.185794 L395,538.923887 L386.500477,534.146555 C386.269967,534.015551 385.995699,533.980198 385.738516,534.048338 C385.481334,534.116478 385.262498,534.282478 385.130554,534.509514 C384.859181,534.978398 385.024424,535.574252 385.500533,535.843636 L394.500028,540.944688 C394.809412,541.119922 395.190588,541.119922 395.499972,540.944688 L404.499467,535.843636 C404.975576,535.574252 405.140819,534.978398 404.869446,534.509514 C404.737502,534.282478 404.518666,534.116478 404.261484,534.048338 C404.004301,533.980198 403.730033,534.015551 403.499523,534.146555 L403.499523,534.185794 Z M403.499523,538.10968 L395,542.847773 L386.500477,538.070441 C386.269967,537.939437 385.995699,537.904084 385.738516,537.972225 C385.481334,538.040365 385.262498,538.206365 385.130554,538.433401 C384.859181,538.902285 385.024424,539.498139 385.500533,539.767522 L394.500028,544.868575 C394.809412,545.043808 395.190588,545.043808 395.499972,544.868575 L404.499467,539.767522 C404.975576,539.498139 405.140819,538.902285 404.869446,538.433401 C404.737502,538.206365 404.518666,538.040365 404.261484,537.972225 C404.004301,537.904084 403.730033,537.939437 403.499523,538.070441 L403.499523,538.10968 Z" id="icon-all"></path>
        </g>
    </g>
</svg>